<svg width="96" height="30" viewBox="0 0 96 30" fill="none" xmlns="http://www.w3.org/2000/svg">
<g clip-path="url(#clip0_1_165)">
<path fill-rule="evenodd" clip-rule="evenodd" d="M20.2763 15.8125C19.3783 15.623 16.7029 14.9528 14.1056 16.7109C14.103 16.7098 14.1002 16.7088 14.0975 16.708C13.8426 16.8732 13.5776 17.022 13.304 17.1537C12.4806 17.5337 11.585 17.7304 10.6786 17.7304C9.77218 17.7304 8.87652 17.5337 8.05314 17.1537C7.25078 16.7775 6.52667 16.2524 5.91906 15.6062C5.30705 14.9532 4.81712 14.1952 4.47266 13.3684C4.12063 12.5237 3.93936 11.6174 3.93936 10.702C3.93936 9.78656 4.12063 8.88024 4.47266 8.0356C4.81248 7.20632 5.30293 6.44752 5.91906 5.79779C6.5296 5.15849 7.25316 4.63835 8.05298 4.26378C8.87637 3.88381 9.77202 3.68707 10.6784 3.68707C11.5848 3.68707 12.4805 3.88381 13.3039 4.26378C14.1038 4.63832 14.8276 5.15846 15.4383 5.79779C16.0543 6.44756 16.5446 7.20635 16.8843 8.0356C17.2366 8.88019 17.4179 9.78653 17.4179 10.702C17.4179 11.6174 17.2366 12.5238 16.8843 13.3684C16.8354 13.484 16.7784 13.5938 16.7243 13.7053C18.1076 13.5767 19.5021 13.6482 20.8651 13.9175C21.1958 12.8756 21.3618 11.7881 21.3571 10.6947C21.3644 9.26721 21.077 7.85368 20.513 6.54298C19.4248 3.97792 17.3878 1.93536 14.8296 0.844098C13.5144 0.277197 12.0962 -0.0102902 10.6647 -0.00023325C9.24241 -0.00838437 7.83391 0.279105 6.52802 0.844098C3.96941 1.93507 1.9321 3.97794 0.844184 6.54346C0.279997 7.8541 -0.00742276 9.26767 2.41525e-05 10.6952C-0.0102957 12.1273 0.277204 13.546 0.844184 14.8605C1.93837 17.4185 3.97424 19.4548 6.52802 20.5456C7.83373 21.111 9.24226 21.3986 10.6645 21.3901C12.0961 21.4005 13.5142 21.1129 14.8293 20.5456C15.1999 20.3822 15.5617 20.1993 15.9131 19.9977C15.953 19.9817 16 19.964 16.0341 19.948C16.8487 19.5638 17.3839 19.3401 18.3199 19.3714C20.1403 19.4319 20.5512 20.322 20.6517 21.0457H25.1957C25.1957 19.8014 24.1363 16.6268 20.2763 15.8125ZM40.16 5.75191H36.345V14.3614H36.3483C36.3424 15.2125 36.001 16.0266 35.3987 16.6263C34.7964 17.2259 33.982 17.5625 33.1332 17.5625C32.2844 17.5625 31.4701 17.2259 30.8678 16.6263C30.2655 16.0266 29.9241 15.2125 29.9181 14.3614H29.9219V5.75191H26.1058V14.3614C26.1058 16.2302 26.8462 18.0224 28.164 19.3438C29.4819 20.6652 31.2694 21.4076 33.1331 21.4076C34.9969 21.4076 36.7844 20.6652 38.1022 19.3438C39.4201 18.0224 40.1605 16.2302 40.1605 14.3614L40.16 5.75191ZM92.1837 5.75191V10.8902H92.1855C92.1834 11.3411 92.0861 11.7864 91.8999 12.1968C91.7136 12.6071 91.4428 12.9733 91.1051 13.271L91.1135 13.272C93.1295 13.5729 94.6307 14.9876 94.6519 15.0078C95.5252 13.8134 95.9968 12.3713 95.9983 10.8902H96V5.75191H92.1837ZM96 21.1196C96 21.113 96 21.1068 96 21.1004V21.0726H95.9987C95.9934 20.12 95.7936 19.1785 95.4116 18.3062C95.0296 17.4339 94.4735 16.6493 93.7776 16.0007L93.7818 15.997C93.1898 15.4612 91.8863 14.2026 88.972 14.0978C87.2005 14.0337 85.7626 12.6623 85.7581 10.8904H85.7611V5.75191H81.9453V10.8696C81.9447 10.8735 81.9444 10.8776 81.9443 10.8816C81.9473 12.7102 82.6605 14.4657 83.9327 15.7759C85.2049 17.086 86.9361 17.8478 88.7591 17.8997C88.8029 17.9014 89.0027 17.9083 89.0183 17.9078C89.8534 17.9185 90.6514 18.2555 91.2424 18.8471C91.8335 19.4387 92.1711 20.2382 92.1832 21.0755V22.9644H92.1869C92.1871 22.9664 92.1871 22.9685 92.1869 22.9706C92.1809 23.8217 91.8395 24.6358 91.2372 25.2355C90.6349 25.8351 89.8206 26.1717 88.9718 26.1717C88.123 26.1717 87.3086 25.8351 86.7063 25.2355C86.104 24.6358 85.7626 23.8217 85.7567 22.9706C85.7567 22.964 85.7587 21.9981 85.7587 21.992C85.7587 21.992 81.9448 22.0047 81.9442 22.0113C81.4866 26.7614 85.0911 29.9998 88.9723 29.9998C90.8338 30.0021 92.62 29.2629 93.938 27.9448C95.2559 26.6267 95.9976 24.8376 96 22.9711C96.0003 22.9683 96.0003 22.9654 96 22.9626V21.1345C96 21.1297 96 21.1246 96 21.1196ZM54.9455 23.6919C54.7758 24.2624 54.5032 24.7968 54.1411 25.2686C53.7745 25.7391 53.3123 26.1261 52.7853 26.4041C52.1744 26.695 51.5065 26.8459 50.8302 26.8459C50.1539 26.8459 49.486 26.695 48.8751 26.4041C48.3482 26.1262 47.8863 25.7392 47.52 25.2686C47.1577 24.797 46.8852 24.2625 46.716 23.6919C46.549 23.1438 46.4607 22.5747 46.4538 22.0016H42.604C42.5978 23.1024 42.8167 24.1928 43.2471 25.2055C43.6545 26.1609 44.2495 27.0244 44.9965 27.7445C45.753 28.4623 46.6423 29.0249 47.6141 29.4006C49.6841 30.1995 51.9761 30.1995 54.0461 29.4006C55.018 29.0249 55.9072 28.4623 56.6637 27.7445C57.4106 27.0241 58.0057 26.1608 58.4136 25.2055C58.8434 24.1927 59.0622 23.1024 59.0565 22.0016H55.2077C55.2003 22.5746 55.112 23.1437 54.9455 23.6919ZM60.8706 5.85875C55.2138 5.78993 54.8635 11.0762 55.1005 12.1701H55.0845C55.1647 12.5469 55.2076 12.9307 55.2125 13.3159C55.2109 13.9147 55.1207 14.51 54.9448 15.0822C54.7752 15.6527 54.5026 16.187 54.1405 16.6588C53.7739 17.1293 53.3117 17.5164 52.7847 17.7944C52.1737 18.0852 51.5058 18.236 50.8295 18.236C50.1532 18.236 49.4854 18.0852 48.8744 17.7944C48.3478 17.5164 47.8861 17.1293 47.52 16.6588C47.1577 16.1872 46.8851 15.6528 46.716 15.0822C46.5398 14.5098 46.4495 13.9143 46.448 13.3153C46.4489 12.7215 46.5393 12.1313 46.716 11.5647C46.888 11.0002 47.1603 10.4716 47.52 10.0044C47.8848 9.53607 48.3476 9.15381 48.8759 8.88458C49.4898 8.60435 50.1565 8.45935 50.831 8.45935C51.5055 8.45935 52.1722 8.60435 52.7861 8.88458C53.2003 9.10516 53.5734 9.39573 53.889 9.74351C53.9013 9.68945 53.905 9.63217 53.9184 9.57843C54.1004 8.78585 54.4441 8.03962 54.9277 7.38666C55.119 7.13651 55.3353 6.90661 55.5731 6.70052C55.0926 6.39212 54.5808 6.13571 54.0463 5.9356C51.9687 5.17867 49.6918 5.17867 47.6143 5.9356C46.6431 6.29042 45.753 6.83729 44.9967 7.54372C44.2506 8.25247 43.6554 9.10546 43.2472 10.0512C42.8053 11.0816 42.585 12.1938 42.6007 13.3153C42.586 14.4418 42.8061 15.559 43.2471 16.5952C43.6545 17.5505 44.2495 18.4139 44.9965 19.134C45.753 19.8518 46.6423 20.4144 47.6141 20.7901C49.684 21.5892 51.9762 21.5892 54.0461 20.7901C55.018 20.4144 55.9072 19.8519 56.6637 19.134C57.4106 18.4137 58.0057 17.5504 58.4136 16.5952C58.8542 15.5588 59.0744 14.4418 59.0602 13.3153C59.0602 13.1085 59.045 12.9099 59.032 12.7095L59.0546 12.7127V12.5029C59.0556 12.1119 59.0872 11.7217 59.1491 11.3358C59.2078 10.95 59.3305 10.5768 59.512 10.2317C59.6919 9.89417 59.9586 9.6111 60.2845 9.41191C60.6597 9.20372 61.0831 9.09858 61.5119 9.10709H63.3111V5.85667L60.8706 5.85875ZM79.5637 9.97517C79.2389 9.0283 78.7193 8.16037 78.0387 7.42757C77.392 6.74868 76.6027 6.2226 75.728 5.88747C74.7992 5.53459 73.8129 5.35858 72.8197 5.36848C71.7391 5.35897 70.6667 5.55647 69.66 5.95036C68.7074 6.31718 67.8411 6.87827 67.1159 7.59813C66.3907 8.31799 65.8225 9.18095 65.4471 10.1324C65.0274 11.1871 64.819 12.3144 64.8339 13.4499C64.8149 14.5859 65.0234 15.7142 65.4471 16.768C65.8288 17.7038 66.4079 18.5457 67.1447 19.236C67.8878 19.9196 68.7588 20.4488 69.7071 20.793C70.7451 21.169 71.8419 21.3554 72.9455 21.3434C75.0811 21.3768 77.1528 20.6121 78.757 19.1982L76.6986 16.7619C76.3698 17.1002 75.4743 17.6516 75.3037 17.7426C74.6536 18.0888 73.857 18.2617 72.9139 18.2614C72.3772 18.263 71.8446 18.167 71.3419 17.9781C70.8522 17.7976 70.3955 17.5374 69.9901 17.2081C69.5957 16.8887 69.2696 16.4929 69.0312 16.0443C68.7866 15.582 68.642 15.0731 68.6069 14.5509C68.5249 13.6514 68.5249 12.7462 68.6069 11.8467C68.6355 11.3432 68.7659 10.8508 68.9902 10.3995C69.2145 9.94809 69.5279 9.54714 69.9115 9.221C70.711 8.53434 71.7362 8.16967 72.7885 8.19763C73.3327 8.1853 73.8734 8.28716 74.376 8.49667C74.7962 8.67325 75.172 8.94115 75.4763 9.28103C75.7807 9.62091 76.006 10.0243 76.136 10.4621C76.2735 10.9102 76.3424 11.3767 76.3405 11.8456H69.8986V14.5506H80.0823C80.1033 14.3836 80.114 14.2156 80.1143 14.0473V13.5447C80.1378 12.3319 79.9516 11.1242 79.5637 9.97517Z" fill="black"/>
</g>
<defs>
<clipPath id="clip0_1_165">
<rect width="96" height="30" fill="white"/>
</clipPath>
</defs>
</svg>
